<svg width="134.674561" height="25.562439" viewBox="0 0 134.675 25.5624" fill="none" xmlns="http://www.w3.org/2000/svg" xmlns:xlink="http://www.w3.org/1999/xlink">
  <defs/>
  <path id="Vector" d="M15.63 20.56L15.63 25.34L0 25.34L0 10.14L5.65 10.14L5.65 20.56L15.63 20.56Z" fill="#666D80" fill-opacity="1.000000" fill-rule="nonzero"/>
  <path id="Vector" d="M16.06 17.72C16.06 12.44 18.93 9.92 25.62 9.92C32.31 9.92 35.18 12.47 35.18 17.72C35.18 22.98 32.29 25.56 25.62 25.56C18.95 25.56 16.06 23.02 16.06 17.72ZM29.53 17.72C29.53 16.13 28.96 14.7 25.62 14.7C22.28 14.7 21.71 16.11 21.71 17.72C21.71 19.33 22.28 20.78 25.62 20.78C28.96 20.78 29.53 19.33 29.53 17.72Z" fill="#666D80" fill-opacity="1.000000" fill-rule="nonzero"/>
  <path id="Vector" d="M45.17 9.92C51.25 9.92 54.42 12.05 54.66 16.85L48.88 16.85C48.66 15.42 47.56 14.7 45.17 14.7C41.82 14.7 41.26 16.11 41.26 17.72C41.26 19.32 41.82 20.78 45.17 20.78C47.56 20.78 48.66 20.04 48.88 18.59L54.66 18.59C54.42 23.41 51.27 25.56 45.17 25.56C38.48 25.56 35.61 23.02 35.61 17.72C35.61 12.41 38.48 9.92 45.17 9.92Z" fill="#666D80" fill-opacity="1.000000" fill-rule="nonzero"/>
  <path id="Vector" d="M67.23 17.31L75.99 25.34L68.17 25.34L63.3 20.52L60.96 22.45L60.96 25.34L55.3 25.34L55.3 10.14L60.96 10.14L60.96 16.09L67.96 10.14L76 10.14L67.24 17.31L67.23 17.31Z" fill="#666D80" fill-opacity="1.000000" fill-rule="nonzero"/>
  <path id="Vector" d="M95.12 14.92L88.59 14.92L88.59 25.34L82.93 25.34L82.93 14.92L76.45 14.92L76.45 10.14L95.12 10.14L95.12 14.92Z" fill="#666D80" fill-opacity="1.000000" fill-rule="nonzero"/>
  <path id="Vector" d="M95.32 17.72C95.32 12.44 98.18 9.92 104.88 9.92C111.57 9.92 114.43 12.47 114.43 17.72C114.43 22.98 111.54 25.56 104.88 25.56C98.21 25.56 95.32 23.02 95.32 17.72ZM108.79 17.72C108.79 16.13 108.22 14.7 104.88 14.7C101.53 14.7 100.97 16.11 100.97 17.72C100.97 19.33 101.53 20.78 104.88 20.78C108.22 20.78 108.79 19.33 108.79 17.72Z" fill="#666D80" fill-opacity="1.000000" fill-rule="nonzero"/>
  <path id="Vector" d="M134.67 10.14L134.67 25.34L127.31 25.34L120.76 16.37L120.76 25.34L115.1 25.34L115.1 10.14L122.48 10.14L129.02 19.11L129.02 10.14L134.67 10.14Z" fill="#666D80" fill-opacity="1.000000" fill-rule="nonzero"/>
  <path id="Vector" d="M25.61 0C20.19 0 18.55 2.18 18.55 8.05L18.55 16.23L20.7 16.23L20.7 8.05C20.7 4.03 21.63 2.54 25.63 2.54C29.63 2.54 30.57 4.05 30.57 8.05L32.71 8.05C32.69 2.18 31.03 0 25.61 0Z" fill="#666D80" fill-opacity="1.000000" fill-rule="nonzero"/>
</svg>
