<svg width="18.397217" height="21.500000" viewBox="0 0 18.3972 21.5" fill="none" xmlns="http://www.w3.org/2000/svg" xmlns:xlink="http://www.w3.org/1999/xlink">
  <defs/>
  <path id="Vector" d="M8 13L8 21L0 21C0 16.58 3.58 13 8 13ZM8 12C4.68 12 2 9.31 2 6C2 2.68 4.68 0 8 0C11.31 0 14 2.68 14 6C14 9.31 11.31 12 8 12ZM10.59 17.81C10.53 17.55 10.5 17.27 10.5 17C10.5 16.72 10.53 16.44 10.59 16.18L9.6 15.61L10.6 13.88L11.59 14.45C11.98 14.08 12.46 13.8 13 13.64L13 12.5L15 12.5L15 13.64C15.53 13.8 16.01 14.08 16.4 14.45L17.39 13.88L18.39 15.61L17.4 16.18C17.46 16.44 17.5 16.72 17.5 17C17.5 17.27 17.46 17.55 17.4 17.81L18.39 18.38L17.39 20.11L16.4 19.54C16.01 19.91 15.53 20.19 15 20.35L15 21.5L13 21.5L13 20.35C12.46 20.19 11.98 19.91 11.59 19.54L10.6 20.11L9.6 18.38L10.59 17.81ZM14 16C13.44 16 13 16.44 13 17C13 17.55 13.44 18 14 18C14.55 18 15 17.55 15 17C15 16.44 14.55 16 14 16Z" fill="currentColor" fill-opacity="1.000000" fill-rule="nonzero"/>
</svg>
