<svg width="158.000000" height="56.000000" viewBox="0 0 158 56" fill="none" xmlns="http://www.w3.org/2000/svg" xmlns:xlink="http://www.w3.org/1999/xlink">
	<defs/>
	<circle id="Ellipse 8" cx="79.000000" cy="28.000000" r="28.000000" fill="#F4F7FF" fill-opacity="1.000000"/>
	<path id="Vector" d="M12.2 32.44L12.2 36.24L0 36.24L0 24.14L4.41 24.14L4.41 32.44L12.2 32.44Z" fill="#0797F3" fill-opacity="1.000000" fill-rule="nonzero"/>
	<path id="Vector" d="M12.54 30.18C12.54 25.98 14.78 23.97 20 23.97C25.22 23.97 27.46 25.99 27.46 30.18C27.46 34.36 25.21 36.41 20 36.41C14.79 36.41 12.54 34.39 12.54 30.18ZM23.05 30.18C23.05 28.91 22.61 27.77 20 27.77C17.39 27.77 16.95 28.9 16.95 30.18C16.95 31.45 17.39 32.61 20 32.61C22.61 32.61 23.05 31.45 23.05 30.18Z" fill="#0797F3" fill-opacity="1.000000" fill-rule="nonzero"/>
	<path id="Vector" d="M35.26 23.97C40.01 23.97 42.48 25.67 42.67 29.48L38.16 29.48C37.99 28.34 37.13 27.77 35.26 27.77C32.65 27.77 32.21 28.89 32.21 30.17C32.21 31.45 32.65 32.61 35.26 32.61C37.13 32.61 37.99 32.02 38.16 30.87L42.67 30.87C42.48 34.7 40.02 36.41 35.26 36.41C30.04 36.41 27.8 34.39 27.8 30.17C27.8 25.95 30.04 23.97 35.26 23.97Z" fill="#0797F3" fill-opacity="1.000000" fill-rule="nonzero"/>
	<path id="Vector" d="M52.49 29.85L59.32 36.24L53.22 36.24L49.42 32.4L47.59 33.94L47.59 36.24L43.17 36.24L43.17 24.14L47.59 24.14L47.59 28.88L53.06 24.14L59.33 24.14L52.5 29.85L52.49 29.85Z" fill="#0797F3" fill-opacity="1.000000" fill-rule="nonzero"/>
	<path id="Vector" d="M74.26 27.94L69.16 27.94L69.16 36.24L64.74 36.24L64.74 27.94L59.68 27.94L59.68 24.14L74.26 24.14L74.26 27.94Z" fill="#0797F3" fill-opacity="1.000000" fill-rule="nonzero"/>
	<path id="Vector" d="M74.41 30.18C74.41 25.98 76.65 23.97 81.87 23.97C87.1 23.97 89.34 25.99 89.34 30.18C89.34 34.36 87.08 36.41 81.87 36.41C76.67 36.41 74.41 34.39 74.41 30.18ZM84.93 30.18C84.93 28.91 84.49 27.77 81.87 27.77C79.26 27.77 78.82 28.9 78.82 30.18C78.82 31.45 79.26 32.61 81.87 32.61C84.49 32.61 84.93 31.45 84.93 30.18Z" fill="#0797F3" fill-opacity="1.000000" fill-rule="nonzero"/>
	<path id="Vector" d="M114.3 30.18C114.3 25.98 116.53 23.97 121.76 23.97C126.99 23.97 129.22 25.99 129.22 30.18C129.22 34.36 126.96 36.41 121.76 36.41C116.56 36.41 114.3 34.39 114.3 30.18ZM124.81 30.18C124.81 28.91 124.37 27.77 121.76 27.77C119.15 27.77 118.71 28.9 118.71 30.18C118.71 31.45 119.15 32.61 121.76 32.61C124.37 32.61 124.81 31.45 124.81 30.18Z" fill="#0797F3" fill-opacity="1.000000" fill-rule="nonzero"/>
	<path id="Vector" d="M105.14 24.14L105.14 36.24L99.39 36.24L94.27 29.1L94.27 36.24L89.86 36.24L89.86 24.14L95.62 24.14L100.73 31.28L100.73 24.14L105.14 24.14Z" fill="#0797F3" fill-opacity="1.000000" fill-rule="nonzero"/>
	<path id="Vector" d="M145.02 24.14L145.02 36.24L139.28 36.24L134.16 29.1L134.16 36.24L129.74 36.24L129.74 24.14L135.51 24.14L140.61 31.28L140.61 24.14L145.02 24.14Z" fill="#0797F3" fill-opacity="1.000000" fill-rule="nonzero"/>
	<path id="Vector" d="M19.99 16.07C15.76 16.07 14.48 17.82 14.48 22.48L14.48 28.99L16.16 28.99L16.16 22.48C16.16 19.29 16.88 18.1 20 18.1C23.13 18.1 23.87 19.3 23.87 22.48L25.53 22.48C25.52 17.82 24.23 16.07 19.99 16.07Z" fill="#0797F3" fill-opacity="1.000000" fill-rule="nonzero"/>
	<path id="Vector" d="M158 27.71L158 24.13L150.18 24.13L146.13 24.13L146.13 27.71L146.13 28.63L146.13 31.72L146.13 32.65L146.13 36.22L150.18 36.22L158 36.22L158 32.65L150.18 32.65L150.18 31.72L156.39 31.72L156.39 28.63L150.18 28.63L150.18 27.71L158 27.71Z" fill="#0797F3" fill-opacity="1.000000" fill-rule="nonzero"/>
	<circle id="Ellipse 7" cx="110.000000" cy="34.158447" r="2.000000" fill="#0797F3" fill-opacity="1.000000"/>
</svg>
