<svg width="52.000000" height="52.000000" viewBox="0 0 52 52" fill="none" xmlns="http://www.w3.org/2000/svg" xmlns:xlink="http://www.w3.org/1999/xlink">
  <defs>
    <filter id="filter_26_2053_dd" x="0.000000" y="0.000000" width="52.000000" height="52.000000" filterUnits="userSpaceOnUse" color-interpolation-filters="sRGB">
      <feFlood flood-opacity="0" result="BackgroundImageFix"/>
      <feColorMatrix in="SourceAlpha" type="matrix" values="0 0 0 0 0 0 0 0 0 0 0 0 0 0 0 0 0 0 127 0" result="hardAlpha"/>
      <feOffset dx="0" dy="1"/>
      <feGaussianBlur stdDeviation="0.666667"/>
      <feComposite in2="hardAlpha" operator="out" k2="-1" k3="1"/>
      <feColorMatrix type="matrix" values="0 0 0 0 0.05098 0 0 0 0 0.05098 0 0 0 0 0.070588 0 0 0 0.059 0"/>
      <feBlend mode="normal" in2="BackgroundImageFix" result="effect_dropShadow_1"/>
      <feBlend mode="normal" in="SourceGraphic" in2="effect_dropShadow_1" result="shape"/>
    </filter>
    <clipPath id="clip292_779">
      <rect id="briefcase-fill" rx="0.500000" width="19.000000" height="19.000000" transform="translate(16.500000 15.500000)" fill="white" fill-opacity="0"/>
    </clipPath>
  </defs>
  <g filter="url(#filter_26_2053_dd)">
    <rect id="Button" rx="23.500000" width="47.000000" height="47.000000" transform="translate(2.500000 1.500000)" fill="#FFFFFF" fill-opacity="1.000000"/>
    <rect id="briefcase-fill" rx="0.500000" width="19.000000" height="19.000000" transform="translate(16.500000 15.500000)" fill="#FFFFFF" fill-opacity="0"/>
    <g clip-path="url(#clip292_779)">
      <path id="Vector" d="M23 20L23 17C23 16.44 23.44 16 24 16L32 16C32.55 16 33 16.44 33 17L33 20L37 20C37.55 20 38 20.44 38 21L38 35C38 35.55 37.55 36 37 36L19 36C18.44 36 18 35.55 18 35L18 21C18 20.44 18.44 20 19 20L23 20ZM20 30L20 34L36 34L36 30L20 30ZM27 26L27 28L29 28L29 26L27 26ZM25 18L25 20L31 20L31 18L25 18Z" fill="#000000" fill-opacity="1.000000" fill-rule="nonzero"/>
    </g>
    <rect id="Button" rx="23.500000" width="47.000000" height="47.000000" transform="translate(2.500000 1.500000)" stroke="#DFE1E7" stroke-opacity="1.000000" stroke-width="1.000000"/>
  </g>
</svg>
