<svg width="18.031052" height="15.000000" viewBox="0 0 18.0311 15" fill="none" xmlns="http://www.w3.org/2000/svg" xmlns:xlink="http://www.w3.org/1999/xlink">
  <defs/>
  <path id="Vector" d="M9.01 0C13.5 0 17.24 3.23 18.03 7.5C17.24 11.76 13.5 15 9.01 15C4.52 15 0.78 11.76 0 7.5C0.78 3.23 4.52 0 9.01 0ZM9.01 13.33C12.54 13.33 15.56 10.87 16.33 7.5C15.56 4.12 12.54 1.66 9.01 1.66C5.48 1.66 2.46 4.12 1.7 7.5C2.46 10.87 5.48 13.33 9.01 13.33ZM9.01 11.25C6.94 11.25 5.26 9.57 5.26 7.5C5.26 5.42 6.94 3.75 9.01 3.75C11.08 3.75 12.76 5.42 12.76 7.5C12.76 9.57 11.08 11.25 9.01 11.25ZM9.01 9.58C10.16 9.58 11.09 8.65 11.09 7.5C11.09 6.34 10.16 5.41 9.01 5.41C7.86 5.41 6.93 6.34 6.93 7.5C6.93 8.65 7.86 9.58 9.01 9.58Z" fill="#818898" fill-opacity="1.000000" fill-rule="nonzero"/>
</svg>
