<svg width="20.000000" height="18.000000" viewBox="0 0 20 18" fill="none" xmlns="http://www.w3.org/2000/svg" xmlns:xlink="http://www.w3.org/1999/xlink">
  <defs/>
  <path id="Vector" d="M15 10C17.2 10 19 11.79 19 14C19 16.2 17.2 18 15 18C12.85 18 11 16.2 11 14L9 14C9 16.2 7.2 18 5 18C2.79 18 1 16.2 1 14C1 11.79 2.79 10 5 10C6.48 10 7.77 10.8 8.46 12L11.53 12C12.22 10.8 13.51 10 15 10ZM0 9L0 7L2 7L2 4C2 1.79 3.79 0 6 0L14 0C16.2 0 18 1.79 18 4L18 7L20 7L20 9L0 9Z" fill="currentColor" fill-opacity="1.000000" fill-rule="nonzero"/>
</svg>
