<svg width="24.000000" height="24.000000" viewBox="0 0 24 24" fill="none" xmlns="http://www.w3.org/2000/svg" xmlns:xlink="http://www.w3.org/1999/xlink">
	<defs>
		<clipPath id="clip34_6069">
			<rect id="list-settings-fill" rx="0.500000" width="23.000000" height="23.000000" transform="translate(0.500000 0.500000)" fill="white" fill-opacity="0"/>
		</clipPath>
	</defs>
	<rect id="list-settings-fill" rx="0.500000" width="23.000000" height="23.000000" transform="translate(0.500000 0.500000)" fill="#FFFFFF" fill-opacity="0"/>
	<g clip-path="url(#clip34_6069)">
		<path id="Vector" d="M2 18L9 18L9 20L2 20L2 18ZM2 11L11 11L11 13L2 13L2 11ZM2 4L22 4L22 6L2 6L2 4ZM20.67 13.02L21.83 12.63L22.83 14.36L21.91 15.17C21.97 15.43 22 15.71 22 16C22 16.28 21.97 16.56 21.91 16.82L22.83 17.63L21.83 19.36L20.67 18.97C20.26 19.34 19.77 19.62 19.23 19.8L19 21L17 21L16.76 19.8C16.22 19.62 15.73 19.34 15.32 18.97L14.16 19.36L13.16 17.63L14.08 16.82C14.02 16.56 14 16.28 14 16C14 15.71 14.02 15.43 14.08 15.17L13.16 14.36L14.16 12.63L15.32 13.02C15.73 12.65 16.22 12.37 16.76 12.19L17 11L19 11L19.23 12.19C19.77 12.37 20.26 12.65 20.67 13.02ZM18 17C18.55 17 19 16.55 19 16C19 15.44 18.55 15 18 15C17.44 15 17 15.44 17 16C17 16.55 17.44 17 18 17Z" fill="currentColor" fill-opacity="1.000000" fill-rule="nonzero"/>
	</g>
</svg>
