<svg width="15.000000" height="17.500000" viewBox="0 0 15 17.5" fill="none" xmlns="http://www.w3.org/2000/svg" xmlns:xlink="http://www.w3.org/1999/xlink">
  <defs/>
  <path id="Vector" d="M12.5 5.83L14.16 5.83C14.62 5.83 15 6.2 15 6.66L15 16.66C15 17.12 14.62 17.5 14.16 17.5L0.83 17.5C0.37 17.5 0 17.12 0 16.66L0 6.66C0 6.2 0.37 5.83 0.83 5.83L2.5 5.83L2.5 5C2.5 2.23 4.73 0 7.5 0C10.26 0 12.5 2.23 12.5 5L12.5 5.83ZM1.66 7.5L1.66 15.83L13.33 15.83L13.33 7.5L1.66 7.5ZM6.66 10.83L8.33 10.83L8.33 12.5L6.66 12.5L6.66 10.83ZM3.33 10.83L5 10.83L5 12.5L3.33 12.5L3.33 10.83ZM10 10.83L11.66 10.83L11.66 12.5L10 12.5L10 10.83ZM10.83 5.83L10.83 5C10.83 3.15 9.34 1.66 7.5 1.66C5.65 1.66 4.16 3.15 4.16 5L4.16 5.83L10.83 5.83Z" fill="#818898" fill-opacity="1.000000" fill-rule="nonzero"/>
</svg>
