<svg width="80.000000" height="80.000000" viewBox="0 0 80 80" fill="none" xmlns="http://www.w3.org/2000/svg" xmlns:xlink="http://www.w3.org/1999/xlink">
  <defs>
    <filter id="filter_3_273_dd" x="14.000000" y="15.000000" width="52.000000" height="52.000000" filterUnits="userSpaceOnUse" color-interpolation-filters="sRGB">
      <feFlood flood-opacity="0" result="BackgroundImageFix"/>
      <feColorMatrix in="SourceAlpha" type="matrix" values="0 0 0 0 0 0 0 0 0 0 0 0 0 0 0 0 0 0 127 0" result="hardAlpha"/>
      <feOffset dx="0" dy="1"/>
      <feGaussianBlur stdDeviation="0.666667"/>
      <feComposite in2="hardAlpha" operator="out" k2="-1" k3="1"/>
      <feColorMatrix type="matrix" values="0 0 0 0 0.05098 0 0 0 0 0.05098 0 0 0 0 0.070588 0 0 0 0.059 0"/>
      <feBlend mode="normal" in2="BackgroundImageFix" result="effect_dropShadow_1"/>
      <feBlend mode="normal" in="SourceGraphic" in2="effect_dropShadow_1" result="shape"/>
    </filter>
    <clipPath id="clip3_274">
      <rect id="user-add-fill" rx="-0.500000" width="19.000000" height="19.000000" transform="translate(30.500000 30.500000)" fill="white" fill-opacity="0"/>
    </clipPath>
    <clipPath id="clip3_275">
      <rect id="user-fill" rx="-0.500000" width="23.000000" height="23.000000" transform="translate(28.500000 28.500000)" fill="white" fill-opacity="0"/>
    </clipPath>
    <linearGradient x1="40.000000" y1="0.000000" x2="40.000000" y2="80.000000" id="paint_linear_3_272_0" gradientUnits="userSpaceOnUse">
      <stop stop-color="#ECEFF3"/>
      <stop offset="0.000100" stop-color="#ECEFF3"/>
      <stop offset="1.000000" stop-color="#ECEFF3" stop-opacity="0.000000"/>
    </linearGradient>
    <linearGradient x1="40.000000" y1="0.000000" x2="40.000000" y2="80.000000" id="paint_linear_3_272_1" gradientUnits="userSpaceOnUse">
      <stop stop-color="#DFE1E7"/>
      <stop offset="1.000000" stop-color="#DFE1E7" stop-opacity="0.000000"/>
    </linearGradient>
  </defs>
  <rect id="Icon" rx="39.500000" width="79.000000" height="79.000000" transform="translate(0.500000 0.500000)" fill="url(#paint_linear_3_272_0)" fill-opacity="1.000000"/>
  <g filter="url(#filter_3_273_dd)">
    <rect id="Button" rx="23.500000" width="47.000000" height="47.000000" transform="translate(16.500000 16.500000)" fill="#FFFFFF" fill-opacity="1.000000"/>
    <rect id="user-fill" rx="-0.500000" width="23.000000" height="23.000000" transform="translate(28.500000 28.500000)" fill="#FFFFFF" fill-opacity="0"/>
    <g clip-path="url(#clip3_275)">
      <path id="Vector" d="M32 50C32 45.58 35.58 42 40 42C44.41 42 48 45.58 48 50L32 50ZM40 41C36.68 41 34 38.31 34 35C34 31.68 36.68 29 40 29C43.31 29 46 31.68 46 35C46 38.31 43.31 41 40 41Z" fill="#000000" fill-opacity="1.000000" fill-rule="nonzero"/>
    </g>
    <rect id="Button" rx="23.500000" width="47.000000" height="47.000000" transform="translate(16.500000 16.500000)" stroke="#DFE1E7" stroke-opacity="1.000000" stroke-width="1.000000"/>
  </g>
  <rect id="Icon" rx="39.500000" width="79.000000" height="79.000000" transform="translate(0.500000 0.500000)" stroke="url(#paint_linear_3_272_1)" stroke-opacity="1.000000" stroke-width="1.000000"/>
</svg>
