<svg width="20.983582" height="21.000000" viewBox="0 0 20.9836 21" fill="none" xmlns="http://www.w3.org/2000/svg" xmlns:xlink="http://www.w3.org/1999/xlink">
  <defs/>
  <path id="Vector" d="M0 21C0 16.58 3.58 13 8 13C12.41 13 16 16.58 16 21L0 21ZM8 12C4.68 12 2 9.31 2 6C2 2.68 4.68 0 8 0C11.31 0 14 2.68 14 6C14 9.31 11.31 12 8 12ZM15.36 14.23C18.44 15.02 20.76 17.72 20.98 21L18 21C18 18.39 17 16.01 15.36 14.23ZM13.34 11.95C14.97 10.49 16 8.36 16 6C16 4.58 15.63 3.25 14.98 2.09C17.27 2.55 19 4.57 19 7C19 9.76 16.76 12 14 12C13.77 12 13.55 11.98 13.34 11.95Z" fill="currentColor" fill-opacity="1.000000" fill-rule="nonzero"/>
</svg>
