<svg width="56.000000" height="56.000000" viewBox="0 0 56 56" fill="none" xmlns="http://www.w3.org/2000/svg" xmlns:xlink="http://www.w3.org/1999/xlink">
  <defs>
    <clipPath id="clip68_10353">
      <rect id="icon-park-outline:attention" rx="-0.500000" width="33.000000" height="33.000000" transform="translate(11.500000 11.500000)" fill="white" fill-opacity="0"/>
    </clipPath>
    <clipPath id="clip68_10352">
      <rect id="Frame 1000002386" rx="5.000000" width="54.000000" height="54.000000" transform="translate(1.000000 1.000000)" fill="white" fill-opacity="0"/>
    </clipPath>
  </defs>
  <g clip-path="url(#clip68_10352)">
    <rect id="icon-park-outline:attention" rx="-0.500000" width="33.000000" height="33.000000" transform="translate(11.500000 11.500000)" fill="#FFFFFF" fill-opacity="0"/>
    <g clip-path="url(#clip68_10353)">
      <path id="Vector" d="M33.42 41.09C35.14 40.37 36.7 39.33 38.01 38.01C39.33 36.7 40.37 35.14 41.09 33.42C41.8 31.7 42.16 29.86 42.16 28C42.16 26.13 41.8 24.29 41.09 22.57C40.37 20.85 39.33 19.29 38.01 17.98C36.7 16.66 35.14 15.62 33.42 14.9C31.7 14.19 29.86 13.83 28 13.83C26.13 13.83 24.29 14.19 22.57 14.9C20.85 15.62 19.29 16.66 17.98 17.98C16.66 19.29 15.62 20.85 14.9 22.57C14.19 24.29 13.83 26.13 13.83 28C13.83 29.86 14.19 31.7 14.9 33.42C15.62 35.14 16.66 36.7 17.98 38.01C19.29 39.33 20.85 40.37 22.57 41.09C24.29 41.8 26.13 42.16 28 42.16C29.86 42.16 31.7 41.8 33.42 41.09Z" stroke="#666D80" stroke-opacity="1.000000" stroke-width="3.000000" stroke-linejoin="round"/>
      <path id="Vector" d="M28 37.2C28.46 37.2 28.92 37.02 29.25 36.68C29.58 36.35 29.77 35.9 29.77 35.43C29.77 34.96 29.58 34.51 29.25 34.18C28.92 33.85 28.46 33.66 28 33.66C27.53 33.66 27.08 33.85 26.74 34.18C26.41 34.51 26.22 34.96 26.22 35.43C26.22 35.9 26.41 36.35 26.74 36.68C27.08 37.02 27.53 37.2 28 37.2Z" fill="#666D80" fill-opacity="1.000000" fill-rule="evenodd"/>
      <path id="Vector" d="M28 19.5L28 30.83" stroke="#666D80" stroke-opacity="1.000000" stroke-width="3.000000" stroke-linejoin="round" stroke-linecap="round"/>
    </g>
  </g>
  <rect id="Frame 1000002386" rx="5.000000" width="54.000000" height="54.000000" transform="translate(1.000000 1.000000)" stroke="#666D80" stroke-opacity="1.000000" stroke-width="2.000000"/>
</svg>
