<svg width="192.674438" height="42.000000" viewBox="0 0 192.674 42" fill="none" xmlns="http://www.w3.org/2000/svg" xmlns:xlink="http://www.w3.org/1999/xlink">
  <defs/>
  <rect id="Rectangle 1370" rx="4.000000" width="42.000000" height="42.000000" fill="#666D80" fill-opacity="1.000000"/>
  <path id="Vector" d="M11 26.71C11 21.14 14.02 18.48 21.09 18.48C28.15 18.48 31.18 21.16 31.18 26.71C31.18 32.26 28.13 34.99 21.09 34.99C14.04 34.99 11 32.3 11 26.71ZM25.21 26.71C25.21 25.03 24.62 23.52 21.09 23.52C17.55 23.52 16.96 25.02 16.96 26.71C16.96 28.41 17.55 29.94 21.09 29.94C24.62 29.94 25.21 28.41 25.21 26.71Z" fill="#FFFFFF" fill-opacity="1.000000" fill-rule="nonzero"/>
  <path id="Vector" d="M21.07 8C15.36 8 13.62 10.31 13.62 16.5L13.62 25.14L15.89 25.14L15.89 16.5C15.89 12.26 16.87 10.68 21.09 10.68C25.32 10.68 26.31 12.28 26.31 16.5L28.57 16.5C28.55 10.31 26.8 8 21.07 8Z" fill="#FFFFFF" fill-opacity="1.000000" fill-rule="nonzero"/>
  <path id="Vector" d="M73.63 10.64L73.63 15.41L58 15.41L58 0.22L63.65 0.22L63.65 10.64L73.63 10.64Z" fill="#666D80" fill-opacity="1.000000" fill-rule="nonzero"/>
  <path id="Vector" d="M74.06 7.8C74.06 2.52 76.93 0 83.62 0C90.31 0 93.18 2.54 93.18 7.8C93.18 13.05 90.29 15.63 83.62 15.63C76.95 15.63 74.06 13.09 74.06 7.8ZM87.53 7.8C87.53 6.21 86.96 4.78 83.62 4.78C80.28 4.78 79.71 6.19 79.71 7.8C79.71 9.4 80.28 10.86 83.62 10.86C86.96 10.86 87.53 9.4 87.53 7.8Z" fill="#666D80" fill-opacity="1.000000" fill-rule="nonzero"/>
  <path id="Vector" d="M103.17 0C109.25 0 112.42 2.13 112.66 6.93L106.89 6.93C106.66 5.49 105.56 4.78 103.17 4.78C99.82 4.78 99.26 6.18 99.26 7.79C99.26 9.4 99.82 10.86 103.17 10.86C105.56 10.86 106.66 10.12 106.89 8.66L112.66 8.66C112.42 13.48 109.27 15.63 103.17 15.63C96.48 15.63 93.61 13.09 93.61 7.79C93.61 2.49 96.48 0 103.17 0Z" fill="#666D80" fill-opacity="1.000000" fill-rule="nonzero"/>
  <path id="Vector" d="M125.23 7.38L133.99 15.41L126.17 15.41L121.3 10.59L118.96 12.52L118.96 15.41L113.3 15.41L113.3 0.22L118.96 0.22L118.96 6.17L125.96 0.22L134 0.22L125.25 7.38L125.23 7.38Z" fill="#666D80" fill-opacity="1.000000" fill-rule="nonzero"/>
  <path id="Vector" d="M153.12 4.99L146.59 4.99L146.59 15.41L140.93 15.41L140.93 4.99L134.45 4.99L134.45 0.22L153.12 0.22L153.12 4.99Z" fill="#666D80" fill-opacity="1.000000" fill-rule="nonzero"/>
  <path id="Vector" d="M153.32 7.8C153.32 2.52 156.18 0 162.88 0C169.57 0 172.43 2.54 172.43 7.8C172.43 13.05 169.54 15.63 162.88 15.63C156.21 15.63 153.32 13.09 153.32 7.8ZM166.79 7.8C166.79 6.21 166.22 4.78 162.88 4.78C159.53 4.78 158.97 6.19 158.97 7.8C158.97 9.4 159.53 10.86 162.88 10.86C166.22 10.86 166.79 9.4 166.79 7.8Z" fill="#666D80" fill-opacity="1.000000" fill-rule="nonzero"/>
  <path id="Vector" d="M192.67 0.22L192.67 15.41L185.31 15.41L178.76 6.45L178.76 15.41L173.1 15.41L173.1 0.22L180.48 0.22L187.02 9.19L187.02 0.22L192.67 0.22Z" fill="#666D80" fill-opacity="1.000000" fill-rule="nonzero"/>
  <path id="Hint Text" d="M92.69 26.64Q92.85 26.72 93.05 26.72Q93.22 26.72 93.36 26.66Q93.52 26.59 93.65 26.46Q93.76 26.35 93.82 26.21Q93.89 26.05 93.89 25.85Q93.89 25.64 93.81 25.47Q93.75 25.34 93.65 25.23Q93.52 25.1 93.36 25.04Q93.22 24.98 93.05 24.98Q92.85 24.98 92.69 25.05Q92.55 25.12 92.43 25.23Q92.32 25.34 92.26 25.47Q92.18 25.64 92.18 25.85Q92.18 26.04 92.25 26.2Q92.32 26.34 92.43 26.46Q92.55 26.58 92.69 26.64ZM68.51 29.7Q68.03 30.59 68.03 31.77Q68.03 32.93 68.5 33.83Q68.51 33.84 68.51 33.84Q68.84 34.47 69.34 34.91Q69.56 35.1 69.82 35.26Q70.09 35.42 70.39 35.54Q70.99 35.76 71.67 35.76Q72.64 35.76 73.37 35.34Q73.39 35.33 73.41 35.32Q74.03 34.95 74.4 34.41Q74.47 34.3 74.53 34.19L74.53 35.63L75.82 35.63L75.82 25.27L74.53 25.27L74.53 29.33Q74.47 29.24 74.41 29.15Q74.02 28.6 73.35 28.25Q73.05 28.09 72.72 27.99Q72.23 27.84 71.69 27.84Q70.91 27.84 70.25 28.11Q70.03 28.2 69.82 28.33Q69.53 28.49 69.29 28.71Q68.82 29.12 68.51 29.7ZM146.38 35.63L146.38 25.27L145.1 25.27L145.1 35.63L146.38 35.63ZM60.59 33.46L64.84 33.46L65.62 35.63L66.97 35.63L63.45 25.93L61.98 25.93L58.46 35.63L59.8 35.63L60.59 33.46ZM62.71 27.5L64.48 32.43L60.95 32.43L62.71 27.5ZM88.79 28.19Q88.09 27.82 87.2 27.82Q86.59 27.82 86.05 28.02Q85.79 28.12 85.55 28.27Q85.19 28.49 84.92 28.79Q84.65 29.11 84.48 29.53Q84.25 28.98 83.85 28.61Q83.64 28.41 83.38 28.25Q83.3 28.21 83.23 28.17Q82.54 27.82 81.67 27.82Q81.01 27.82 80.45 28.05Q80.36 28.1 80.26 28.14Q79.94 28.31 79.68 28.54Q79.43 28.77 79.25 29.07L79.25 27.96L77.97 27.96L77.97 35.63L79.25 35.63L79.25 31.41Q79.25 30.2 79.83 29.57Q80.01 29.38 80.22 29.24Q80.72 28.93 81.42 28.93Q82.13 28.93 82.62 29.25Q82.8 29.37 82.95 29.54Q83.52 30.14 83.52 31.29L83.52 35.63L84.78 35.63L84.78 31.41Q84.78 30.2 85.36 29.57Q85.54 29.38 85.75 29.24Q86.25 28.93 86.95 28.93Q87.66 28.93 88.15 29.25Q88.33 29.37 88.48 29.54Q89.05 30.14 89.05 31.29L89.05 35.63L90.31 35.63L90.31 31.11Q90.31 30.05 89.9 29.31Q89.62 28.79 89.2 28.46Q89.01 28.31 88.79 28.19L88.79 28.19ZM101.37 28.29Q100.62 27.82 99.57 27.82Q98.92 27.82 98.36 28.04Q98.25 28.09 98.14 28.14Q97.73 28.34 97.44 28.65Q97.25 28.83 97.11 29.05L97.11 27.96L95.84 27.96L95.84 35.63L97.11 35.63L97.11 31.39Q97.11 30.19 97.71 29.56Q97.87 29.39 98.06 29.26Q98.57 28.93 99.31 28.93Q100.07 28.93 100.58 29.28Q100.74 29.39 100.88 29.54L100.88 29.54Q101.45 30.15 101.45 31.29L101.45 35.63L102.71 35.63L102.71 31.11Q102.71 29.66 102 28.83Q101.92 28.74 101.84 28.67Q101.62 28.45 101.37 28.29ZM132.99 28.29Q132.25 27.82 131.2 27.82Q130.55 27.82 129.99 28.04Q129.88 28.09 129.77 28.14Q129.36 28.34 129.06 28.65Q128.88 28.83 128.74 29.05L128.74 27.96L127.46 27.96L127.46 35.63L128.74 35.63L128.74 31.39Q128.74 30.19 129.33 29.56Q129.49 29.39 129.68 29.26Q130.2 28.93 130.93 28.93Q131.7 28.93 132.21 29.28Q132.37 29.39 132.5 29.54L132.5 29.54Q133.08 30.15 133.08 31.29L133.08 35.63L134.34 35.63L134.34 31.11Q134.34 29.66 133.62 28.83Q133.55 28.74 133.47 28.67Q133.25 28.45 132.99 28.29ZM109.81 29.37Q109.81 29.37 109.81 29.37L109.81 27.96L108.53 27.96L108.53 39.27L109.81 39.27L109.81 34.22Q109.82 34.24 109.83 34.25Q110.22 34.89 110.95 35.32Q111.01 35.36 111.08 35.39Q111.78 35.76 112.68 35.76Q113.37 35.76 113.98 35.53Q114.26 35.42 114.53 35.26Q114.81 35.09 115.04 34.88Q115.52 34.45 115.84 33.84Q115.85 33.83 115.86 33.81Q116.32 32.91 116.32 31.77Q116.32 30.59 115.84 29.7Q115.54 29.13 115.09 28.73Q114.83 28.5 114.53 28.33Q114.29 28.18 114.03 28.08Q113.41 27.84 112.68 27.84Q111.73 27.84 111 28.24Q110.97 28.26 110.94 28.28Q110.19 28.72 109.81 29.37ZM118 29.7Q117.52 30.59 117.52 31.77Q117.52 32.93 117.99 33.83L118 33.84Q118.34 34.49 118.86 34.94Q119.07 35.11 119.3 35.26Q119.56 35.42 119.84 35.52Q120.45 35.76 121.15 35.76Q122.1 35.76 122.83 35.35Q122.86 35.34 122.89 35.32Q123.58 34.92 123.95 34.32Q123.99 34.26 124.02 34.2L124.02 35.63L125.31 35.63L125.31 27.96L124.02 27.96L124.02 29.36Q124 29.32 123.97 29.27Q123.6 28.67 122.91 28.27Q122.17 27.84 121.16 27.84Q120.45 27.84 119.82 28.08Q119.56 28.18 119.31 28.33Q119.02 28.49 118.78 28.71Q118.31 29.12 118 29.7ZM143.38 32.27Q143.42 31.87 143.42 31.5Q143.42 30.54 143.04 29.77Q143.01 29.69 142.97 29.62Q142.77 29.25 142.49 28.95Q142.14 28.58 141.67 28.31Q141.64 28.29 141.61 28.28Q140.79 27.84 139.74 27.84Q138.65 27.84 137.81 28.29Q137.78 28.31 137.76 28.32Q137.41 28.51 137.13 28.77Q136.71 29.16 136.42 29.7Q135.95 30.59 135.95 31.78Q135.95 32.97 136.44 33.88Q136.74 34.43 137.19 34.84Q137.46 35.08 137.79 35.27Q137.91 35.34 138.04 35.4Q138.81 35.76 139.74 35.76Q140.98 35.76 141.86 35.19Q141.95 35.13 142.04 35.07Q142.52 34.71 142.83 34.24Q143.12 33.8 143.27 33.27L141.9 33.27Q141.78 33.6 141.57 33.87Q141.38 34.11 141.12 34.3Q140.57 34.68 139.74 34.68Q139.12 34.68 138.62 34.44Q138.3 34.29 138.03 34.04Q137.89 33.92 137.77 33.77Q137.31 33.18 137.25 32.27L143.38 32.27ZM93.67 35.63L93.67 27.96L92.39 27.96L92.39 35.63L93.67 35.63ZM141.78 29.99Q142.11 30.51 142.11 31.24L137.26 31.24Q137.35 30.33 137.82 29.75Q137.92 29.63 138.04 29.53Q138.31 29.28 138.62 29.14Q139.1 28.91 139.69 28.91Q140.28 28.91 140.78 29.13Q140.84 29.15 140.91 29.19Q141.19 29.32 141.41 29.53Q141.63 29.73 141.78 29.99ZM74.18 30.27Q74.53 30.92 74.53 31.78Q74.53 32.65 74.18 33.3Q73.92 33.78 73.54 34.09Q73.4 34.2 73.23 34.3Q73.03 34.42 72.81 34.49Q72.39 34.64 71.93 34.64Q71.44 34.64 71.01 34.48Q70.81 34.41 70.62 34.3Q70.49 34.22 70.37 34.12Q69.96 33.8 69.68 33.3Q69.33 32.65 69.33 31.77Q69.33 30.9 69.68 30.26Q69.96 29.76 70.37 29.45Q70.49 29.35 70.62 29.28Q70.8 29.18 71 29.1Q71.43 28.94 71.93 28.94Q72.38 28.94 72.79 29.08Q73.02 29.16 73.23 29.29Q73.4 29.38 73.55 29.5Q73.93 29.81 74.18 30.27ZM114.67 30.26Q115.02 30.9 115.02 31.77Q115.02 32.65 114.67 33.3Q114.41 33.78 114.03 34.09Q113.88 34.2 113.72 34.3Q113.52 34.42 113.29 34.49Q112.88 34.64 112.41 34.64Q112.01 34.64 111.64 34.52Q111.37 34.44 111.12 34.3Q110.98 34.21 110.85 34.12Q110.44 33.8 110.16 33.3Q109.81 32.65 109.81 31.78Q109.81 30.93 110.16 30.28Q110.44 29.77 110.86 29.45Q110.99 29.36 111.12 29.29Q111.37 29.14 111.65 29.05Q112.01 28.94 112.41 28.94Q112.89 28.94 113.31 29.09Q113.52 29.17 113.72 29.28Q113.88 29.37 114.02 29.48Q114.41 29.79 114.67 30.26ZM123.67 30.27Q124.02 30.92 124.02 31.78Q124.02 32.65 123.67 33.3Q123.41 33.78 123.03 34.09Q122.89 34.2 122.73 34.3Q122.52 34.42 122.3 34.49Q121.88 34.64 121.42 34.64Q120.93 34.64 120.5 34.48Q120.3 34.41 120.11 34.3Q119.98 34.22 119.86 34.12Q119.45 33.8 119.17 33.3Q118.83 32.65 118.83 31.77Q118.83 30.9 119.17 30.26Q119.45 29.76 119.86 29.45Q119.98 29.35 120.11 29.28Q120.29 29.18 120.49 29.1Q120.92 28.94 121.42 28.94Q121.87 28.94 122.28 29.08Q122.51 29.16 122.73 29.29Q122.89 29.38 123.04 29.5Q123.42 29.81 123.67 30.27Z" fill="#666D80" fill-opacity="1.000000" fill-rule="evenodd"/>
</svg>
